<?xml version="1.0" standalone="no"?><!DOCTYPE svg PUBLIC "-//W3C//DTD SVG 1.1//EN" "http://www.w3.org/Graphics/SVG/1.1/DTD/svg11.dtd"><svg t="1566564667781" class="icon" viewBox="0 0 1024 1024" version="1.1" xmlns="http://www.w3.org/2000/svg" p-id="6639" xmlns:xlink="http://www.w3.org/1999/xlink" width="200" height="200"><defs><style type="text/css"></style></defs><path d="M252.01664 745.526613c-2.085547-0.3072-4.171093-0.7168-6.25664-1.020586 4.201813-0.4096 4.07552-0.3072 6.25664-2.03776-2.013867-6.014293 0.750933-50.664107 4.171093-60.142934-3.577173-1.529173-3.35872-0.512-5.215573-4.078933 6.87104-1.93536 7.154347-13.35296 8.342187-19.367253-1.7408 0.3072-3.47136 0.713387-5.21216 1.017173v-1.017173c15.981227-16.616107 18.244267-64.119467 39.61856-75.434667-3.054933-6.42048-1.6384-8.157867-4.171094-15.291733 14.4384-5.707093 9.19552-28.132693 18.766507-36.693334 3.607893-0.7168 1.69984 0.914773 4.171093-3.06176l-4.171093-3.058346c6.30784-1.426773 7.297707-2.955947 10.427733-7.133867l-5.21216-6.116693c6.075733-0.3072 9.413973-2.24256 9.383254-11.2128-1.826133-1.020587-1.604267-0.7168 0-2.03776 3.355307-15.496533 45.059413-84.609707 42.745173-89.705814 1.389227 0.3072 2.78528 0.713387 4.171093 1.017174 0.979627-12.94336 32.324267-53.009067 32.324267-53.009067 0.69632-0.709973 1.3824-1.32096 2.082133-2.034347 0.249173-1.430187 27.818667-40.062293 31.279787-41.796266-0.344747 0.7168-0.699733 1.324373-1.04448 2.03776 4.276907-3.362133 1.471147-7.338667 5.215573-12.229974 13.3632-17.329493 24.8832-28.951893 37.533014-47.91296 3.095893-4.58752 13.1072-9.683627 14.595413-12.229973 12.335787-21.203627 29.78816-39.553707 44.834133-61.166933 6.058667-8.66304 15.793493-12.229973 20.852054-23.442774 2.740907 1.020587 1.73056 1.631573 4.171093 1.020587 4.54656-20.59264 45.95712-61.16352 66.727253-81.55136 6.4-6.321493 2.167467-25.483947 4.171094-29.559467 2.93888-8.768853 5.901653-16.213333 12.509866-21.408426 7.850667 2.24256 16.305493 9.786027 23.98208 9.17504 1.133227-3.160747 4.16768-10.195627 4.16768-10.195627 0.344747-0.713387 0.699733-1.324373 1.04448-2.03776 1.385813 1.324373 2.781867 2.751147 4.171094 4.07552 0.750933-3.669333 0.72704-2.955947 2.082133-5.096107 10.929493 2.75456 19.070293-3.669333 29.19424-2.03776 14.711467 2.44736 30.976 22.1184 38.577493 32.621227 3.566933-1.327787 1.460907-1.024 6.25664-1.024-0.344747 1.3312-0.699733 2.75456-1.04448 4.078933 3.805867-1.93536 0.709973-2.853547 4.171094-1.017173 6.632107 4.17792 1.774933 11.2128 6.25664 17.329493 3.638613 4.993707 7.0656 1.119573 12.509866 5.096107 1.389227 4.79232 2.78528 9.48224 4.171094 14.271147 5.6832 6.116693 12.919467 9.37984 18.766506 16.308906-4.887893 3.365547 2.1504 9.58464 2.085547 15.291734 3.754667-0.512 3.4816-0.1024 7.297707 1.020586-0.512 6.929067 2.911573 18.14528 5.215573 27.521707H819.2c-5.768533 7.338667-8.69376 30.173867-16.68096 39.755093-3.536213 4.181333-26.97216 10.806613-35.45088 13.253974l-9.383253-3.058347c-10.059093 1.83296-45.4656 42.202453-57.344 47.909547h-9.383254c-4.734293 2.54976-6.31808 9.683627-8.342186 13.25056-5.21216-1.426773-5.21216 0.3072-10.42432 2.041173 2.065067 7.748267-2.304 17.83808-7.297707 21.405013h-4.171093c1.15712 2.85696 0.907947 1.529173 1.041066 4.078934-8.912213 3.058347-34.54976 24.97536-28.14976 30.583466-20.59264 14.370133-19.694933 11.721387-33.36192 33.6384-2.389333 3.87072-22.9376 12.229973-28.153173 17.329494-22.44608 21.8112-40.639147 51.985067-61.515093 79.510186-12.946773 17.124693-21.3504 39.447893-31.276374 60.142934-1.2288 2.546347-2.710187 6.321493 0 7.133866-10.717867 8.871253-39.089493 62.795093-35.45088 73.396907-5.399893 0.713387-4.13696-0.6144-4.16768 4.078933-9.05216 6.014293 1.1776 14.677333-5.215573 21.405014-7.724373 8.157867-13.448533 21.306027-21.89312 28.542293 2.082133 0.3072 4.171093 0.7168 6.253227 1.020587-3.949227 4.68992-2.573653 12.332373-9.383254 14.267733 0.55296 3.775147 3.95264 11.421013 6.25664 13.253973-4.867413 10.195627-14.336 17.534293-9.383253 27.52512-1.385813-0.3072-2.78528-0.7168-4.171093-1.024-0.06144 17.025707-1.81248 58.412373-10.42432 76.458667 1.7408 0.303787 3.47136 0.709973 5.21216 1.017173-4.00384 2.955947-2.389333 1.529173-4.171094 5.096107 3.208533 1.938773 3.2768 0.512 5.21216 4.078933-1.385813 0.3072-2.781867 0.713387-4.16768 1.017174 6.638933 7.133867 18.909867 65.344853 34.4064 55.046826 1.041067 1.324373 2.082133 2.75456 3.126614 4.078934 55.08096-13.253973 86.766933-46.687573 114.688-98.880854-1.04448-0.713387-2.085547-1.324373-3.126614-2.03776 17.599147-9.478827 53.097813-74.007893 49.001814-87.668053-5.317973-3.669333-6.81984-10.192213-14.595414-6.11328-0.699733-0.3072-1.389227-0.7168-2.085546-1.020587-0.699733-3.771733-1.389227-7.441067-2.085547-11.2128h-5.215573c6.2976-14.066347-20.903253-27.624107-28.14976-35.679573-24.958293 11.011413-48.073387-2.853547-69.853867-5.096107-0.02048 3.160747 1.000107 1.426773-1.04448 4.078934-3.126613-1.733973-6.253227-3.365547-9.383253-5.09952 3.130027-3.464533-0.853333-4.686507 2.085546-7.133867l11.4688-3.058347c-0.208213-11.52 26.514773-21.306027 35.45088-23.446186 1.31072 3.058347-0.023893 1.221973 2.082134 3.058346 6.434133-16.513707 55.323307-8.66304 68.8128-10.192213l-2.082134-3.058347c4.481707 1.119573 3.157333 1.324373 6.253227 3.058347 0.866987-3.874133 24.302933-19.572053 31.279787-24.466773 2.34496 3.058347 2.450773 6.116693 3.126613 12.233386 18.26816-4.993707 37.911893-12.844373 54.217387-15.291733 5.21216-0.815787 13.18912 6.62528 17.72544 9.17504 3.47136-1.324373 6.95296-2.751147 10.42432-4.078933 5.328213 1.020587 19.913387 7.133867 21.896533 6.116693-2.587307-1.73056-1.221973-0.610987 0-3.058347 3.126613 1.327787 6.253227 2.75456 9.383253 4.078934-0.57344 4.79232-0.648533 10.704213 4.171094 10.192213 13.346133 7.236267 37.771947 7.236267 42.745173 20.38784-1.7408 0.3072-3.47136 0.7168-5.21216 1.020587 1.23904 10.192213 4.273493 16.718507 9.386667 27.521706-2.19136 1.733973-2.06848 1.529173-6.260054 2.041174v12.229973c-11.717973 4.48512-53.89312 60.040533-51.08736 69.317973 2.21184 7.338667-6.35904 22.7328-9.383253 22.4256-0.699733 0.3072-1.385813 0.7168-2.082133 1.024 1.96608 7.338667 2.95936 9.274027 7.294293 15.28832-5.3248 1.221973-6.7584 3.464533-8.338773 8.154454 1.041067 1.324373 2.082133 2.751147 3.126613 4.07552-3.40992 1.430187-18.944 47.60576-25.019733 55.046826 8.400213 12.946773-4.184747 23.4496-9.386667 31.60064-16.899413 26.402133-47.377067 56.6784-78.199467 68.3008-0.290133 4.993707 0.075093 5.096107-6.253226 4.07552 1.05472 10.397013-77.206187 69.522773-94.877014 70.33856 0.69632 1.324373 1.385813 2.751147 2.082134 4.07552-10.881707-1.426773-14.0288-0.815787-27.10528 0 0.699733 1.327787 1.385813 2.75456 2.082133 4.078934-22.58944-2.751147-45.008213 14.370133-67.76832 2.03776 0.136533 3.669333 2.33472 3.771733-1.041067 5.096106-1.385813 0.3072-2.78528 0.7168-4.171093 1.020587-0.341333-0.7168-0.699733-1.324373-1.041067-2.03776 1.385813-2.041173 2.781867-4.078933 4.16768-6.116693-15.50336 0.1024-14.834347 0.1024-27.10528-1.020587 1.938773 3.669333 1.989973 1.426773 2.082134 5.096107h-1.041067c-15.735467-4.686507-23.627093-10.9056-36.488533-15.291734-6.76864-2.341547-6.7072 4.283733-13.55776 1.024 1.344853-4.68992 0.04096-4.488533-2.082134-10.195626-4.662613 0.2048-2.962773 2.34496-5.215573-2.03776 3.054933-1.938773 2.563413-8.260267 1.041067-13.253974-3.57376-0.815787-1.8432-1.83296-6.253227-4.07552-2.044587 2.14016-0.385707 1.017173-4.171093 2.03776v-1.020586c1.041067-0.713387 2.082133-1.324373 3.126613-2.03776-3.877547-4.993707-8.11008-6.42048-11.4688-9.17504 2.83648-3.160747 2.962773-0.3072 1.04448-4.07552-2.19136-5.505707-2.27328-4.99712-8.342187-5.09952v-1.017174l3.126614-3.058346c-6.202027-8.97024-10.581333-19.367253-19.807574-26.504534 1.949013-7.441067-3.4816-13.45536-9.386666-18.35008l3.130026-3.058346c-4.410027-2.751147-3.095893-3.97312-5.21216-8.154454-2.085547 0.7168-4.171093 1.327787-6.25664 2.041174v-1.020587c1.385813-1.020587 2.78528-2.03776 4.171094-3.058347-4.983467-6.321493-6.171307-13.25056-7.297707-23.446186-2.085547 0.3072-4.171093 0.7168-6.25664 1.020586v-1.020586c3.826347-1.83296 3.584-0.815787 5.21216-5.096107-2.082133-0.7168-4.171093-1.324373-6.253227-2.03776 7.441067-14.677333-8.946347-36.901547-2.085546-51.98848-1.71008-1.529173-3.672747-2.24256-5.215574-4.078933 3.556693-1.426773 3.201707-1.324373 5.215574-4.07552l-6.25664-3.058347c2.389333-0.843093 4.539733-2.24256 6.25664-4.078933-0.699733-3.362133-1.389227-6.826667-2.085547-10.192214z" p-id="6640" fill="#ffffff"></path></svg>