<?xml version="1.0" standalone="no"?><!DOCTYPE svg PUBLIC "-//W3C//DTD SVG 1.1//EN" "http://www.w3.org/Graphics/SVG/1.1/DTD/svg11.dtd"><svg t="1566564562845" class="icon" viewBox="0 0 1024 1024" version="1.1" xmlns="http://www.w3.org/2000/svg" p-id="3720" width="200" height="200" xmlns:xlink="http://www.w3.org/1999/xlink"><defs><style type="text/css"></style></defs><path d="M694.675036 96.963887l-10.636916-39.636508 18.138741 21.777685q-4.646653 11.58864-7.501825 17.858823z m-60.070584 31.742796a137.216216 137.216216 0 0 0-20.098172 10.412981l-35.94158-134.361044a125.851511 125.851511 0 0 1 21.609735-4.75862z m-39.188637 24.408923c-5.598377 4.646653-11.700608 10.077078-18.474644 16.403244l-39.188638-146.733456c6.662068-3.694929 13.380121-7.109939 20.154157-10.021095zM522.972819 223.991057q-9.629208 10.189046-17.802839 18.922513l-42.49168-158.602015q9.405273-10.301013 17.858822-18.642595zM454.224751 308.806465c-3.638945 6.718052-7.221906 13.772007-10.6929 21.329816-1.287627 2.799188-2.687221 5.598377-4.086815 8.733468L393.370395 166.831629l17.243001-20.937929z m-60.462469 115.662466l-3.806897 6.718052-3.079107 15.283568c4.31075-0.44787 8.397565-1.063692 12.316429-1.79148l36.445433 135.928589-20.881945 7.445841-88.510338-330.304232a281.038516 281.038516 0 0 1 15.843406-26.14442z m0.839756 173.885584c-5.878296 3.806896-12.260445 8.341581-19.202432 13.716023L297.302249 320.675024l14.331845-31.854764z m-37.901011 29.111559a165.544003 165.544003 0 0 0-17.97079 18.250708l-72.778898-271.801194 16.291276-24.464907z m45.850706 256.517626l24.744826 7.053955 31.742796 118.797556c-10.301013-1.735497-18.306692-3.303042-24.129004-4.646653z m49.825554 15.227585c2.351318 0.839757 4.142799 1.567546 4.926571 1.959432a4.926572 4.926572 0 0 0 6.102231-1.511562c3.86288 0 7.781744 0 11.812575-0.335903l32.806488 122.380518-24.52089-6.270182z m156.754551-352.69774l-24.017037-4.366734-33.590261-125.907494c8.565517 1.175659 16.515212 2.51927 23.905069 3.918863z m-152.947655 26.536306l-35.717644-134.249076a83.63975 83.63975 0 0 0 10.748883-4.75862c3.694929-2.015416 6.718052-3.750912 9.405274-5.318458l36.165514 135.032849q-10.189046 4.198783-20.490059 8.957403z m41.316021-16.34726l-35.997563-134.361044h4.814604l16.795131-4.590669 35.549692 132.681531q-10.636916 2.407302-20.993913 5.934279z m42.715615-11.196754L504.778094 413.216193h20.042189l3.247058 0.335903 34.430018 128.762667c-7.445841 0.223935-14.779715 1.399594-22.113589 2.855172z m109.78417 5.598377l-17.243001-1.567545-33.030423-123.16429a152.499785 152.499785 0 0 1 19.706286 7.053954c1.847464 0.839757 3.86288 1.847464 5.598377 2.911156L656.662057 554.407257c-1.959432-1.847464-4.254766-2.911156-6.550101-3.638945z m134.696946 24.464907l18.362676 36.725352 9.51724 11.196754 29.503446 110.176055-5.598376 13.436105v24.464906a27.096144 27.096144 0 0 0-3.079108 12.260446l-0.671805 1.119675-59.790664-223.207284c4.534685 4.086815 8.397565 8.677484 11.924542 13.324137z m-42.603648-44.787015l74.850298 279.414987-13.883974 22.393508-1.903448 4.030831-89.574029-333.607275q18.474644 16.179309 30.679105 27.488031z m-24.744825 142.47869q-3.079107-45.90669-12.260445-68.860034a87.50263 87.50263 0 0 0-20.210141-31.238943l-32.134683-119.973215q13.380121 9.685192 28.999592 23.009328l104.857598 391.270556-8.005679 16.795131-8.005679 8.005679-53.912368-201.205663c0.559838-5.262474 0.783773-11.532656 0.783772-18.026774z m-13.380121 54.976061l48.817846 182.171182-13.660039 13.660039-4.198783 5.094523-46.578495-173.549682c6.270182-11.028802 11.420689-20.098173 15.619471-27.376062z m-31.406894 53.520482l45.122917 168.455159-6.158214 7.501825a157.538324 157.538324 0 0 1-11.868559 10.636916l-43.163485-161.121285c4.534685-7.165922 9.909127-15.731439 15.89939-25.472615z m-49.993505 65.724944l17.131033-17.131033 40.532248 151.156174-1.007707 0.615822a123.16429 123.16429 0 0 1-19.538335 8.117646l-38.012979-141.862869z m-18.86653 19.202433l34.76592 129.658407c-3.582961 0.89574-7.333874 1.791481-11.196753 2.631237l-10.301014 2.183367-32.078699-119.693297a102.786198 102.786198 0 0 0 18.810546-14.723731z m-45.290868 17.578903h4.366734l32.470585 121.09289a89.182143 89.182143 0 0 1-12.316429 1.399595l-9.96511 0.839756-31.966732-119.245426c7.165922-1.679513 13.044218-3.023123 17.410952-4.086815z m-41.316021 9.181338l2.295334-0.503854 31.182959 116.446238-4.422717 0.391886a62.533869 62.533869 0 0 1-12.260446 13.772007 5.598377 5.598377 0 0 1-2.295334 0.44787l-34.038131-127.139137c6.214198-0.89574 12.708315-1.959432 19.426367-3.41501zM189.533495 766.417787q-7.669776-22.953345-7.669776-87.222711v-21.161865l48.929813 182.619052c-22.897361-35.605677-36.837319-60.350502-41.427988-74.234476z m78.377276 127.531024L187.070209 592.1963c2.799188-14.331845 5.598377-26.200404 8.341582-35.549693 0.839757-2.799188 1.847464-5.598377 2.743204-8.453549l101.330621 377.666501a145.053943 145.053943 0 0 1-31.462878-31.910748z m60.350502 54.304255l-117.565913-439.080694a98.363481 98.363481 0 0 1 7.837727-25.808517l5.150507-11.196754 134.361043 502.174401a205.852316 205.852316 0 0 1-29.783364-26.088436z m-5.598377-241.402009a279.918841 279.918841 0 0 0 3.079107 39.80446q3.023123 21.441783 22.953345 71.939142a172.150087 172.150087 0 0 0 26.312371 47.810138l33.590261 126.411348-24.96876-13.436104h-1.511562l-144.046236-537.444175 4.75862-10.133062 9.125355-23.401215 71.603239 267.322493a91.085591 91.085591 0 0 0-1.007708 30.959024z m86.606889-309.870157l-50.385391-188.049477c0.727789-0.89574 1.287627-1.735497 2.015416-2.631237l15.171601-18.41866 48.425959 180.715604q-6.941987 13.044218-15.283568 28.215819z m70.763483-126.523316q-5.150507 5.878296-10.021094 12.708316l-42.379713-158.210129 4.982556-6.046247c4.254766-5.150507 8.341581-9.965111 12.316429-14.667748l42.323728 158.042178z m61.582145-65.836911l-0.671805 0.671805-41.875858-156.362665c1.455578-1.175659 2.911156-2.463286 4.31075-3.526977 4.870588-3.806896 9.797159-7.333874 14.779715-10.6929l40.588231 152.163882c-5.486409 5.598377-11.196754 11.196754-17.131033 17.746855z m114.150904-82.855977L624.135488 3.806896l6.270182 1.847465a68.076262 68.076262 0 0 1 21.385799 16.011357l25.192696 94.052731a189.28112 189.28112 0 0 1-21.3858 6.046247z" p-id="3721" fill="#ffffff"></path></svg>