<?xml version="1.0" standalone="no"?><!DOCTYPE svg PUBLIC "-//W3C//DTD SVG 1.1//EN" "http://www.w3.org/Graphics/SVG/1.1/DTD/svg11.dtd"><svg t="1566564639239" class="icon" viewBox="0 0 1024 1024" version="1.1" xmlns="http://www.w3.org/2000/svg" p-id="5134" xmlns:xlink="http://www.w3.org/1999/xlink" width="200" height="200"><defs><style type="text/css"></style></defs><path d="M713.71812 0l62.828303 120.589807Q373.735933 264.993568 328.134745 725.058882A148.457199 148.457199 0 0 0 404.136724 891.756556c61.308263 22.800594 121.096487 4.053439 178.351312-57.761504a229.525977 229.525977 0 0 0 69.415141-132.243444 35.46759 35.46759 0 0 0-40.534389-40.027709 202.671945 202.671945 0 0 0-97.789214 57.254824l-17.227115 17.227116a287.794161 287.794161 0 0 1-46.107867 28.880752l-50.667986-50.667986A279.687284 279.687284 0 0 1 627.075863 506.679861c72.9619 4.053439 111.46957 50.667986 115.016329 143.897081q-33.947551 344.542306-310.594755 373.423058-212.805542-5.066799-230.032657-322.248392Q230.345532 206.725383 713.71812 0z" p-id="5135" fill="#ffffff"></path></svg>