<?xml version="1.0" standalone="no"?><!DOCTYPE svg PUBLIC "-//W3C//DTD SVG 1.1//EN" "http://www.w3.org/Graphics/SVG/1.1/DTD/svg11.dtd"><svg t="1566297049452" class="icon" viewBox="0 0 1024 1024" version="1.1" xmlns="http://www.w3.org/2000/svg" p-id="1946" xmlns:xlink="http://www.w3.org/1999/xlink" width="200" height="200"><defs><style type="text/css"></style></defs><path d="M723.2 505.6c-6.4-6.4-12.8-12.8-12.8-25.6v-38.4c0-6.4-6.4-12.8-12.8-19.2-6.4-12.8 0-32-6.4-38.4-6.4-38.4-25.6-64-51.2-89.6-25.6-25.6-70.4-57.6-128-57.6-51.2 0-96 25.6-128 57.6s-57.6 70.4-57.6 134.4c-12.8 12.8-12.8 32-12.8 57.6-12.8 25.6-44.8 57.6-51.2 102.4 0 25.6 0 70.4 25.6 76.8 19.2 0 25.6-32 38.4-38.4 6.4 32 19.2 51.2 38.4 64-19.2 12.8-57.6 19.2-51.2 51.2 6.4 44.8 115.2 51.2 166.4 32 12.8-6.4 19.2-19.2 32-19.2 19.2 12.8 44.8 25.6 76.8 32 51.2 6.4 115.2-6.4 121.6-44.8 0-32-32-38.4-51.2-51.2 19.2-12.8 32-38.4 38.4-64 12.8 6.4 19.2 38.4 38.4 38.4s25.6-44.8 19.2-76.8c0-32-19.2-64-32-83.2z" p-id="1947" fill="#ffffff"></path><path d="M512 25.6C243.2 25.6 19.2 243.2 19.2 512c0 268.8 217.6 486.4 492.8 486.4 268.8 0 492.8-217.6 492.8-486.4C1004.8 243.2 780.8 25.6 512 25.6z m0 940.8C262.4 966.4 57.6 761.6 57.6 512 57.6 262.4 262.4 57.6 512 57.6s454.4 204.8 454.4 454.4c0 249.6-204.8 454.4-454.4 454.4z" p-id="1948" fill="#ffffff"></path></svg>