<?xml version="1.0" standalone="no"?><!DOCTYPE svg PUBLIC "-//W3C//DTD SVG 1.1//EN" "http://www.w3.org/Graphics/SVG/1.1/DTD/svg11.dtd"><svg t="1566297091667" class="icon" viewBox="0 0 1024 1024" version="1.1" xmlns="http://www.w3.org/2000/svg" p-id="3695" xmlns:xlink="http://www.w3.org/1999/xlink" width="200" height="200"><defs><style type="text/css"></style></defs><path d="M982 512c0 259.574-210.426 470-470 470S42 771.574 42 512C42 252.424 252.426 42 512 42s470 210.424 470 470zM512.002 83.812C275.518 83.812 83.814 275.52 83.814 512s191.704 428.188 428.188 428.188c236.48 0 428.184-191.708 428.184-428.188S748.482 83.812 512.002 83.812z" p-id="3696" fill="#ffffff"></path><path d="M749.422 591.178c0 16.482-4.394 33.384-13.176 50.712-8.788 17.324-21.722 33.926-38.816 49.792-17.092 15.878-37.098 30.118-60.006 42.714-22.912 12.6-49.736 22.658-80.482 30.17-30.748 7.51-62.854 11.272-96.328 11.272s-66.12-4.062-97.93-12.182c-31.816-8.118-60.362-19.382-85.644-33.8-25.286-14.418-45.644-32.716-61.074-54.892-15.434-22.172-23.146-46.346-23.146-72.52 0-27.866 8.244-57.552 24.748-89.056 16.5-31.498 39.94-62.762 70.336-93.788 40.116-40.952 80.658-69.548 121.614-85.786 40.95-16.232 70.208-15.388 87.782 2.544 15.428 15.508 17.804 40.838 7.122 75.972-0.952 3.396-1.068 5.816-0.356 7.268 0.712 1.456 1.896 2.306 3.56 2.544a14.706 14.706 0 0 0 5.162-0.184c1.782-0.36 3.384-0.782 4.81-1.27l2.136-0.726c32.994-14.298 62.196-21.446 87.602-21.446 25.4 0 43.562 7.392 54.486 22.172 10.684 15.266 10.684 36.84 0 64.704-0.48 3.15-1.014 5.578-1.602 7.272-0.596 1.694-0.062 3.212 1.602 4.546 1.656 1.33 3.084 2.236 4.274 2.724 1.184 0.486 3.206 1.212 6.054 2.18 13.532 4.36 25.756 10.056 36.68 17.084 10.914 7.032 20.414 16.902 28.486 29.626 8.068 12.726 12.106 26.85 12.106 42.354z m-109.68-1.456c-2.136-23.262-12.704-43.856-31.694-61.792-18.996-17.934-43.748-31.138-74.25-39.624-30.51-8.484-63.094-11.026-97.752-7.634-52.948 5.578-96.81 22.718-131.586 51.44-34.784 28.71-50.514 60.762-47.184 96.142 2.136 23.268 12.696 43.864 31.696 61.798 18.988 17.936 43.738 31.14 74.248 39.62 30.502 8.49 63.086 11.034 97.754 7.634 52.938-5.574 96.8-22.716 131.584-51.438 34.776-28.714 50.506-60.758 47.184-96.146z m-111.108 58.16c-10.684 24.718-29.44 42.896-56.266 54.526-26.832 11.634-53.416 13.088-79.77 4.364-25.406-8.234-42.91-23.564-52.526-45.98s-8.85-45.134 2.312-68.16c11.158-22.538 29.14-39.376 53.954-50.528 24.804-11.142 49.792-13.45 74.96-6.906 26.354 7.032 45.164 21.512 56.444 43.442 11.272 21.932 11.576 45.016 0.892 69.242z m-95.438 5.09c4.986-8.232 6.286-16.596 3.918-25.08-2.378-8.482-7.72-14.542-16.026-18.178-8.076-3.39-16.738-3.508-25.998-0.362-9.258 3.15-16.38 8.722-21.368 16.718-5.226 8.24-6.766 16.542-4.628 24.898 2.136 8.368 7.238 14.488 15.312 18.36 8.066 3.876 16.914 4.18 26.53 0.91 9.616-3.27 17.034-9.028 22.26-17.266z m33.474-43.982c1.896-3.146 2.314-6.358 1.246-9.636-1.068-3.266-3.15-5.506-6.232-6.72-3.328-1.212-6.71-1.15-10.15 0.18-3.442 1.336-5.996 3.58-7.654 6.726-4.042 7.514-2.492 12.964 4.628 16.358 3.32 1.218 6.766 1.154 10.328-0.18 3.562-1.334 6.17-3.578 7.834-6.728zM787.528 305.1c20.654 23.266 34.012 50.228 40.062 80.88 6.052 30.656 4.454 59.92-4.806 87.786-2.136 6.542-6.176 11.392-12.108 14.542-5.94 3.15-12.11 3.632-18.52 1.454-6.41-2.182-11.16-6.3-14.244-12.36-3.09-6.054-3.684-12.362-1.782-18.902 6.644-19.866 7.836-40.712 3.562-62.522-4.274-21.81-13.774-40.952-28.49-57.436-14.722-16.718-32.29-28.29-52.706-34.71-20.422-6.422-40.952-7.454-61.606-3.094-6.65 1.456-12.82 0.306-18.52-3.448-5.698-3.76-9.258-9.032-10.684-15.814-1.424-6.784-0.3-13.026 3.384-18.722 3.678-5.692 8.84-9.268 15.49-10.722 29.202-6.3 58.164-4.904 86.892 4.178 28.726 9.088 53.422 25.39 74.076 48.89z m-100.426 35.442c14.008 4.486 25.996 12.422 35.968 23.81 9.97 11.392 16.436 24.54 19.41 39.438 2.964 14.91 2.192 29.144-2.316 42.714-1.902 5.578-5.402 9.694-10.504 12.36-5.112 2.67-10.388 3.15-15.85 1.452-5.462-1.938-9.496-5.508-12.108-10.722-2.616-5.208-3.086-10.594-1.422-16.174 4.746-15.268 1.896-28.718-8.546-40.35-10.454-11.63-23.148-15.87-38.106-12.722-5.698 1.216-11.04 0.242-16.026-2.908-4.984-3.144-7.956-7.634-8.902-13.452-1.19-5.814-0.24-11.206 2.85-16.178 3.082-4.964 7.478-8.05 13.176-9.264 14.246-3.15 28.366-2.486 42.376 1.996z m0 0" p-id="3697" fill="#ffffff"></path></svg>